<svg xmlns="http://www.w3.org/2000/svg" viewBox="0 0 1200 400" width="1200" height="400">
<defs>
<linearGradient id="bodyg" gradientUnits="userSpaceOnUse" x1="0" y1="60" x2="0" y2="348">
 <stop offset="0" stop-color="#2b2d33"/><stop offset="0.28" stop-color="#16171b"/><stop offset="0.5" stop-color="#0a0a0c"/>
 <stop offset="0.72" stop-color="#0d0e11"/><stop offset="0.82" stop-color="#16171b"/><stop offset="1" stop-color="#050506"/></linearGradient>
<linearGradient id="sky" x1="0" y1="0" x2="0" y2="1"><stop offset="0" stop-color="#e8eefc" stop-opacity="0.22"/><stop offset="1" stop-color="#e8eefc" stop-opacity="0"/></linearGradient>
<linearGradient id="horizon" x1="0" y1="0" x2="0" y2="1"><stop offset="0" stop-color="#cfd8e6" stop-opacity="0"/><stop offset="0.55" stop-color="#cfd8e6" stop-opacity="0.11"/><stop offset="1" stop-color="#cfd8e6" stop-opacity="0"/></linearGradient>
<linearGradient id="falloff" x1="0" y1="0" x2="1" y2="0"><stop offset="0" stop-color="#000" stop-opacity="0.6"/><stop offset="0.3" stop-color="#000" stop-opacity="0"/><stop offset="0.72" stop-color="#000" stop-opacity="0"/><stop offset="1" stop-color="#000" stop-opacity="0.5"/></linearGradient>
<linearGradient id="softbox" x1="0" y1="0" x2="1" y2="0"><stop offset="0" stop-color="#fff" stop-opacity="0"/><stop offset="0.5" stop-color="#fff" stop-opacity="0.07"/><stop offset="1" stop-color="#fff" stop-opacity="0"/></linearGradient>
<linearGradient id="glassg" gradientUnits="userSpaceOnUse" x1="0" y1="60" x2="0" y2="178"><stop offset="0" stop-color="#1d2433"/><stop offset="0.55" stop-color="#0b0e15"/><stop offset="1" stop-color="#040508"/></linearGradient>
<linearGradient id="chrome" x1="0" y1="0" x2="1" y2="0"><stop offset="0" stop-color="#7c818a" stop-opacity="0.5"/><stop offset="0.6" stop-color="#f3f5f8"/><stop offset="1" stop-color="#7c818a" stop-opacity="0.6"/></linearGradient>
<linearGradient id="rimlight" x1="0" y1="0" x2="1" y2="0"><stop offset="0" stop-color="#fff" stop-opacity="0.05"/><stop offset="0.35" stop-color="#fff" stop-opacity="0.3"/><stop offset="0.6" stop-color="#fff" stop-opacity="0.95"/><stop offset="0.85" stop-color="#fff" stop-opacity="0.35"/><stop offset="1" stop-color="#fff" stop-opacity="0.1"/></linearGradient>
<linearGradient id="shoulder" x1="0" y1="0" x2="1" y2="0"><stop offset="0" stop-color="#fff" stop-opacity="0.08"/><stop offset="0.62" stop-color="#fff" stop-opacity="0.75"/><stop offset="1" stop-color="#fff" stop-opacity="0.15"/></linearGradient>
<linearGradient id="tailg" x1="0" y1="0" x2="0" y2="1"><stop offset="0" stop-color="#ff7a5e"/><stop offset="0.5" stop-color="#e2321f"/><stop offset="1" stop-color="#7a0f06"/></linearGradient>
<radialGradient id="shadow" cx="0.5" cy="0.5" r="0.5"><stop offset="0" stop-color="#000" stop-opacity="0.95"/><stop offset="0.65" stop-color="#000" stop-opacity="0.6"/><stop offset="1" stop-color="#000" stop-opacity="0"/></radialGradient>
<radialGradient id="liner" cx="0.5" cy="0.6" r="0.5"><stop offset="0" stop-color="#000"/><stop offset="1" stop-color="#0b0b0d"/></radialGradient>
</defs>
<defs><linearGradient id="spoke" x1="0" y1="0" x2="1" y2="1"><stop offset="0" stop-color="#eef0f4"/><stop offset="0.5" stop-color="#9196a0"/><stop offset="1" stop-color="#3a3c42"/></linearGradient>
<linearGradient id="lip" x1="0" y1="0" x2="1" y2="1"><stop offset="0" stop-color="#f6f7f9"/><stop offset="0.45" stop-color="#70747c"/><stop offset="1" stop-color="#26272b"/></linearGradient><clipPath id="bc"><path d="M 74 348 C 58 344, 50 322, 50 298 L 52 240 C 54 214, 64 196, 88 186 C 126 174, 176 168, 224 160 C 304 140, 382 90, 470 72 C 540 58, 620 58, 680 66 C 760 78, 840 136, 900 176 C 980 188, 1060 196, 1118 206 C 1140 212, 1150 230, 1150 256 L 1150 300 C 1150 324, 1142 340, 1124 348 L 1021.4 348 A 90 90 0 1 0 866.6 348 L 344.4 348 A 90 90 0 1 0 189.6 348 Z"/></clipPath><clipPath id="gc"><path d="M 236 176 C 312 150, 392 102, 476 86 C 548 74, 626 74, 680 82 C 752 94, 816 140, 868 178 Z"/></clipPath><clipPath id="above"><rect x="0" y="0" width="1200" height="349"/></clipPath></defs>
<ellipse cx="625.5" cy="381" rx="518.5" ry="16" fill="url(#shadow)"/>
<ellipse cx="267" cy="380" rx="86" ry="7" fill="#000"/><ellipse cx="944" cy="380" rx="86" ry="7" fill="#000"/>
<g clip-path="url(#above)"><circle cx="267" cy="302" r="89" fill="url(#liner)"/><circle cx="944" cy="302" r="89" fill="url(#liner)"/></g>
<path d="M 74 348 C 58 344, 50 322, 50 298 L 52 240 C 54 214, 64 196, 88 186 C 126 174, 176 168, 224 160 C 304 140, 382 90, 470 72 C 540 58, 620 58, 680 66 C 760 78, 840 136, 900 176 C 980 188, 1060 196, 1118 206 C 1140 212, 1150 230, 1150 256 L 1150 300 C 1150 324, 1142 340, 1124 348 L 1021.4 348 A 90 90 0 1 0 866.6 348 L 344.4 348 A 90 90 0 1 0 189.6 348 Z" fill="url(#bodyg)"/>
<g clip-path="url(#bc)">
 <rect x="0" y="174" width="1200" height="40" fill="url(#sky)"/>
 <rect x="0" y="269" width="1200" height="34" fill="url(#horizon)"/>
 <rect x="0" y="314" width="1200" height="40" fill="#000" fill-opacity="0.42"/>
 <rect x="380" y="0" width="420" height="400" fill="url(#softbox)"/>
 <rect x="0" y="0" width="1200" height="400" fill="url(#falloff)"/>
 <path d="M 184.2 269.6 A 91 91 0 0 1 349.8 269.6" fill="none" stroke="#fff" stroke-opacity="0.16" stroke-width="1.4"/><path d="M 861.2 269.6 A 91 91 0 0 1 1026.8 269.6" fill="none" stroke="#fff" stroke-opacity="0.16" stroke-width="1.4"/>
</g>
<path d="M 236 176 C 312 150, 392 102, 476 86 C 548 74, 626 74, 680 82 C 752 94, 816 140, 868 178 Z" fill="url(#glassg)"/>
<g clip-path="url(#gc)">
 <rect x="0" y="148" width="1200" height="30" fill="#000" fill-opacity="0.35"/>
 <path d="M 380 0 L 470 0 L 370 240 L 280 240 Z" fill="#fff" fill-opacity="0.045"/>
 <path d="M 520 0 L 546 0 L 446 240 L 420 240 Z" fill="#fff" fill-opacity="0.03"/>
 <path d="M 700 0 L 790 0 L 690 240 L 600 240 Z" fill="#fff" fill-opacity="0.04"/>
 <path d="M 588 76 L 602 76 L 606 178 L 592 178 Z" fill="#030304"/>
</g>
<path d="M 236 176 C 312 150, 392 102, 476 86 C 548 74, 626 74, 680 82 C 752 94, 816 140, 868 178 Z" fill="none" stroke="url(#chrome)" stroke-width="2.4" stroke-linejoin="round"/>
<path d="M 864 180 C 866 164, 894 158, 912 164 L 910 180 Z" fill="#0c0c0e" stroke="#fff" stroke-opacity="0.25" stroke-width="0.9"/>
<path d="M 60 236 C 300 222, 700 214, 1130 222" fill="none" stroke="#fff" stroke-opacity="0.05" stroke-width="8"/>
<path d="M 60 236 C 300 222, 700 214, 1130 222" fill="none" stroke="url(#shoulder)" stroke-width="1.4"/>
<path d="M 860 270 C 700 266, 520 264, 368 260" fill="none" stroke="#fff" stroke-opacity="0.09" stroke-width="1.1"/>
<path d="M 357 342 L 854 342" stroke="#fff" stroke-opacity="0.12" stroke-width="1"/>
<path d="M 872 182 C 874 230, 868 270, 856 298" fill="none" stroke="#000" stroke-width="2.2"/><path d="M 872 182 C 874 230, 868 270, 856 298" transform="translate(1.6 0)" fill="none" stroke="#fff" stroke-opacity="0.07" stroke-width="1"/><path d="M 598 178 L 606 346" fill="none" stroke="#000" stroke-width="2.2"/><path d="M 598 178 L 606 346" transform="translate(1.6 0)" fill="none" stroke="#fff" stroke-opacity="0.07" stroke-width="1"/><path d="M 380 176 C 380 230, 372 270, 359 300" fill="none" stroke="#000" stroke-width="2.2"/><path d="M 380 176 C 380 230, 372 270, 359 300" transform="translate(1.6 0)" fill="none" stroke="#fff" stroke-opacity="0.07" stroke-width="1"/>
<rect x="778" y="212" width="42" height="6" rx="3" fill="#0a0a0c" stroke="url(#chrome)" stroke-width="0.9"/><rect x="530" y="212" width="42" height="6" rx="3" fill="#0a0a0c" stroke="url(#chrome)" stroke-width="0.9"/>
<path d="M 1100 322 L 1146 318" stroke="#fff" stroke-opacity="0.12" stroke-width="1.2" stroke-linecap="round"/><path d="M 80 336 L 150 336" stroke="#fff" stroke-opacity="0.12" stroke-width="1.2" stroke-linecap="round"/>
<path d="M 88 186 C 126 174, 176 168, 224 160 C 304 140, 382 90, 470 72 C 540 58, 620 58, 680 66 C 760 78, 840 136, 900 176 C 980 188, 1060 196, 1118 206 C 1140 212, 1150 230, 1150 256" fill="none" stroke="#fff" stroke-opacity="0.06" stroke-width="10" stroke-linecap="round"/>
<path d="M 88 186 C 126 174, 176 168, 224 160 C 304 140, 382 90, 470 72 C 540 58, 620 58, 680 66 C 760 78, 840 136, 900 176 C 980 188, 1060 196, 1118 206 C 1140 212, 1150 230, 1150 256" fill="none" stroke="url(#rimlight)" stroke-width="2.2" stroke-linecap="round"/>
<path d="M 1064 202 C 1100 206, 1132 214, 1148 228 L 1146 236 C 1124 224, 1094 218, 1058 214 Z" fill="#0e1117" stroke="#fff" stroke-opacity="0.28" stroke-width="0.8"/>
<path d="M 1070 204 C 1104 208, 1130 216, 1144 228" fill="none" stroke="#dfe9ff" stroke-opacity="0.25" stroke-width="12" stroke-linecap="round"/>
<path d="M 1070 204 C 1104 208, 1130 216, 1144 228" fill="none" stroke="#f6f9ff" stroke-width="2.6" stroke-linecap="round"/>
<path d="M 54 206 C 100 194, 160 182, 226 170 L 228 180 C 164 192, 104 204, 56 220 Z" fill="#e5402f" fill-opacity="0.16" stroke="#ff4a36" stroke-opacity="0.28" stroke-width="10" stroke-linejoin="round"/>
<path d="M 54 206 C 100 194, 160 182, 226 170 L 228 180 C 164 192, 104 204, 56 220 Z" fill="url(#tailg)"/>
<g transform="translate(267 302)"><circle r="78" fill="#060607"/>
<circle r="76.5" fill="none" stroke="#1d1e21" stroke-width="3"/>
<circle r="67.1" fill="none" stroke="#121315" stroke-width="15.8"/>
<path d="M -67.1 -32.8 A 74.9 74.9 0 0 1 15.6 -73.3" fill="none" stroke="#fff" stroke-opacity="0.13" stroke-width="2.5" stroke-linecap="round"/>
<circle r="56.16" fill="#0c0d10"/>
<circle r="41.6" fill="#1a1b1f" stroke="#2a2b30" stroke-width="1"/>
<circle r="41.6" fill="none" stroke="#0e0f12" stroke-width="2" stroke-dasharray="1.5 5"/>
<path d="M -37.1 -19.1 A 41.6 41.6 0 0 1 -10.1 -40.4 L -6.7 -28.1 A 29.2 29.2 0 0 0 -25.8 -13.5 Z" fill="#3a3c42"/>
<path transform="rotate(-8.5)" d="M -3.14 -11.23 L 3.14 -11.23 L 4.21 -54.48 L -4.21 -54.48 Z" fill="url(#spoke)"/>
<path transform="rotate(-8.5)" d="M 3.14 -11.23 L 4.21 -54.48" stroke="#000" stroke-opacity="0.5" stroke-width="0.8"/>
<path transform="rotate(8.5)" d="M -3.14 -11.23 L 3.14 -11.23 L 4.21 -54.48 L -4.21 -54.48 Z" fill="url(#spoke)"/>
<path transform="rotate(8.5)" d="M 3.14 -11.23 L 4.21 -54.48" stroke="#000" stroke-opacity="0.5" stroke-width="0.8"/>
<path transform="rotate(63.5)" d="M -3.14 -11.23 L 3.14 -11.23 L 4.21 -54.48 L -4.21 -54.48 Z" fill="url(#spoke)"/>
<path transform="rotate(63.5)" d="M 3.14 -11.23 L 4.21 -54.48" stroke="#000" stroke-opacity="0.5" stroke-width="0.8"/>
<path transform="rotate(80.5)" d="M -3.14 -11.23 L 3.14 -11.23 L 4.21 -54.48 L -4.21 -54.48 Z" fill="url(#spoke)"/>
<path transform="rotate(80.5)" d="M 3.14 -11.23 L 4.21 -54.48" stroke="#000" stroke-opacity="0.5" stroke-width="0.8"/>
<path transform="rotate(135.5)" d="M -3.14 -11.23 L 3.14 -11.23 L 4.21 -54.48 L -4.21 -54.48 Z" fill="url(#spoke)"/>
<path transform="rotate(135.5)" d="M 3.14 -11.23 L 4.21 -54.48" stroke="#000" stroke-opacity="0.5" stroke-width="0.8"/>
<path transform="rotate(152.5)" d="M -3.14 -11.23 L 3.14 -11.23 L 4.21 -54.48 L -4.21 -54.48 Z" fill="url(#spoke)"/>
<path transform="rotate(152.5)" d="M 3.14 -11.23 L 4.21 -54.48" stroke="#000" stroke-opacity="0.5" stroke-width="0.8"/>
<path transform="rotate(207.5)" d="M -3.14 -11.23 L 3.14 -11.23 L 4.21 -54.48 L -4.21 -54.48 Z" fill="url(#spoke)"/>
<path transform="rotate(207.5)" d="M 3.14 -11.23 L 4.21 -54.48" stroke="#000" stroke-opacity="0.5" stroke-width="0.8"/>
<path transform="rotate(224.5)" d="M -3.14 -11.23 L 3.14 -11.23 L 4.21 -54.48 L -4.21 -54.48 Z" fill="url(#spoke)"/>
<path transform="rotate(224.5)" d="M 3.14 -11.23 L 4.21 -54.48" stroke="#000" stroke-opacity="0.5" stroke-width="0.8"/>
<path transform="rotate(279.5)" d="M -3.14 -11.23 L 3.14 -11.23 L 4.21 -54.48 L -4.21 -54.48 Z" fill="url(#spoke)"/>
<path transform="rotate(279.5)" d="M 3.14 -11.23 L 4.21 -54.48" stroke="#000" stroke-opacity="0.5" stroke-width="0.8"/>
<path transform="rotate(296.5)" d="M -3.14 -11.23 L 3.14 -11.23 L 4.21 -54.48 L -4.21 -54.48 Z" fill="url(#spoke)"/>
<path transform="rotate(296.5)" d="M 3.14 -11.23 L 4.21 -54.48" stroke="#000" stroke-opacity="0.5" stroke-width="0.8"/>
<circle r="56.16" fill="none" stroke="url(#lip)" stroke-width="3.9"/>
<circle r="57.7" fill="none" stroke="#000" stroke-opacity="0.7" stroke-width="1.2"/>
<circle r="11.2" fill="#16171a" stroke="url(#lip)" stroke-width="1.6"/>
<circle r="5.1" fill="#8f949c"/></g><g transform="translate(944 302)"><circle r="78" fill="#060607"/>
<circle r="76.5" fill="none" stroke="#1d1e21" stroke-width="3"/>
<circle r="67.1" fill="none" stroke="#121315" stroke-width="15.8"/>
<path d="M -67.1 -32.8 A 74.9 74.9 0 0 1 15.6 -73.3" fill="none" stroke="#fff" stroke-opacity="0.13" stroke-width="2.5" stroke-linecap="round"/>
<circle r="56.16" fill="#0c0d10"/>
<circle r="41.6" fill="#1a1b1f" stroke="#2a2b30" stroke-width="1"/>
<circle r="41.6" fill="none" stroke="#0e0f12" stroke-width="2" stroke-dasharray="1.5 5"/>
<path d="M -37.1 -19.1 A 41.6 41.6 0 0 1 -10.1 -40.4 L -6.7 -28.1 A 29.2 29.2 0 0 0 -25.8 -13.5 Z" fill="#3a3c42"/>
<path transform="rotate(-8.5)" d="M -3.14 -11.23 L 3.14 -11.23 L 4.21 -54.48 L -4.21 -54.48 Z" fill="url(#spoke)"/>
<path transform="rotate(-8.5)" d="M 3.14 -11.23 L 4.21 -54.48" stroke="#000" stroke-opacity="0.5" stroke-width="0.8"/>
<path transform="rotate(8.5)" d="M -3.14 -11.23 L 3.14 -11.23 L 4.21 -54.48 L -4.21 -54.48 Z" fill="url(#spoke)"/>
<path transform="rotate(8.5)" d="M 3.14 -11.23 L 4.21 -54.48" stroke="#000" stroke-opacity="0.5" stroke-width="0.8"/>
<path transform="rotate(63.5)" d="M -3.14 -11.23 L 3.14 -11.23 L 4.21 -54.48 L -4.21 -54.48 Z" fill="url(#spoke)"/>
<path transform="rotate(63.5)" d="M 3.14 -11.23 L 4.21 -54.48" stroke="#000" stroke-opacity="0.5" stroke-width="0.8"/>
<path transform="rotate(80.5)" d="M -3.14 -11.23 L 3.14 -11.23 L 4.21 -54.48 L -4.21 -54.48 Z" fill="url(#spoke)"/>
<path transform="rotate(80.5)" d="M 3.14 -11.23 L 4.21 -54.48" stroke="#000" stroke-opacity="0.5" stroke-width="0.8"/>
<path transform="rotate(135.5)" d="M -3.14 -11.23 L 3.14 -11.23 L 4.21 -54.48 L -4.21 -54.48 Z" fill="url(#spoke)"/>
<path transform="rotate(135.5)" d="M 3.14 -11.23 L 4.21 -54.48" stroke="#000" stroke-opacity="0.5" stroke-width="0.8"/>
<path transform="rotate(152.5)" d="M -3.14 -11.23 L 3.14 -11.23 L 4.21 -54.48 L -4.21 -54.48 Z" fill="url(#spoke)"/>
<path transform="rotate(152.5)" d="M 3.14 -11.23 L 4.21 -54.48" stroke="#000" stroke-opacity="0.5" stroke-width="0.8"/>
<path transform="rotate(207.5)" d="M -3.14 -11.23 L 3.14 -11.23 L 4.21 -54.48 L -4.21 -54.48 Z" fill="url(#spoke)"/>
<path transform="rotate(207.5)" d="M 3.14 -11.23 L 4.21 -54.48" stroke="#000" stroke-opacity="0.5" stroke-width="0.8"/>
<path transform="rotate(224.5)" d="M -3.14 -11.23 L 3.14 -11.23 L 4.21 -54.48 L -4.21 -54.48 Z" fill="url(#spoke)"/>
<path transform="rotate(224.5)" d="M 3.14 -11.23 L 4.21 -54.48" stroke="#000" stroke-opacity="0.5" stroke-width="0.8"/>
<path transform="rotate(279.5)" d="M -3.14 -11.23 L 3.14 -11.23 L 4.21 -54.48 L -4.21 -54.48 Z" fill="url(#spoke)"/>
<path transform="rotate(279.5)" d="M 3.14 -11.23 L 4.21 -54.48" stroke="#000" stroke-opacity="0.5" stroke-width="0.8"/>
<path transform="rotate(296.5)" d="M -3.14 -11.23 L 3.14 -11.23 L 4.21 -54.48 L -4.21 -54.48 Z" fill="url(#spoke)"/>
<path transform="rotate(296.5)" d="M 3.14 -11.23 L 4.21 -54.48" stroke="#000" stroke-opacity="0.5" stroke-width="0.8"/>
<circle r="56.16" fill="none" stroke="url(#lip)" stroke-width="3.9"/>
<circle r="57.7" fill="none" stroke="#000" stroke-opacity="0.7" stroke-width="1.2"/>
<circle r="11.2" fill="#16171a" stroke="url(#lip)" stroke-width="1.6"/>
<circle r="5.1" fill="#8f949c"/></g>
</svg>