<svg xmlns="http://www.w3.org/2000/svg" viewBox="-62 -62 124 124" width="124" height="124"><defs><radialGradient id="tire" cx="0.5" cy="0.5" r="0.5"><stop offset="0.7" stop-color="#050506"/><stop offset="0.9" stop-color="#18181b"/><stop offset="1" stop-color="#0a0a0b"/></radialGradient>
<linearGradient id="spoke" x1="0" y1="0" x2="1" y2="1"><stop offset="0" stop-color="#e4e7ec"/><stop offset="0.5" stop-color="#8a8e96"/><stop offset="1" stop-color="#3a3c41"/></linearGradient>
<linearGradient id="lip" x1="0" y1="0" x2="1" y2="1"><stop offset="0" stop-color="#f2f4f7"/><stop offset="0.45" stop-color="#6d7178"/><stop offset="1" stop-color="#2a2b2f"/></linearGradient>
<radialGradient id="barrel" cx="0.5" cy="0.5" r="0.5"><stop offset="0" stop-color="#1d1e22"/><stop offset="1" stop-color="#08080a"/></radialGradient></defs><circle r="60" fill="url(#tire)"/>
<path d="M -50 -26 A 56 56 0 0 1 22 -52" fill="none" stroke="#fff" stroke-opacity="0.16" stroke-width="2.5" stroke-linecap="round"/>
<circle r="44" fill="url(#barrel)"/>
<circle r="31" fill="#141518" stroke="#2c2d31" stroke-width="1"/>
<path d="M -26 -14 A 30 30 0 0 1 -6 -29 L -4 -21 A 22 22 0 0 0 -19 -10 Z" fill="#3b3d42"/>
<path transform="rotate(-7)" d="M -2.6 -10 L 2.6 -10 L 4.2 -41 L -4.2 -41 Z" fill="url(#spoke)"/>
<path transform="rotate(7)" d="M -2.6 -10 L 2.6 -10 L 4.2 -41 L -4.2 -41 Z" fill="url(#spoke)"/>
<path transform="rotate(65)" d="M -2.6 -10 L 2.6 -10 L 4.2 -41 L -4.2 -41 Z" fill="url(#spoke)"/>
<path transform="rotate(79)" d="M -2.6 -10 L 2.6 -10 L 4.2 -41 L -4.2 -41 Z" fill="url(#spoke)"/>
<path transform="rotate(137)" d="M -2.6 -10 L 2.6 -10 L 4.2 -41 L -4.2 -41 Z" fill="url(#spoke)"/>
<path transform="rotate(151)" d="M -2.6 -10 L 2.6 -10 L 4.2 -41 L -4.2 -41 Z" fill="url(#spoke)"/>
<path transform="rotate(209)" d="M -2.6 -10 L 2.6 -10 L 4.2 -41 L -4.2 -41 Z" fill="url(#spoke)"/>
<path transform="rotate(223)" d="M -2.6 -10 L 2.6 -10 L 4.2 -41 L -4.2 -41 Z" fill="url(#spoke)"/>
<path transform="rotate(281)" d="M -2.6 -10 L 2.6 -10 L 4.2 -41 L -4.2 -41 Z" fill="url(#spoke)"/>
<path transform="rotate(295)" d="M -2.6 -10 L 2.6 -10 L 4.2 -41 L -4.2 -41 Z" fill="url(#spoke)"/>
<circle r="42" fill="none" stroke="url(#lip)" stroke-width="3.2"/>
<circle r="44.5" fill="none" stroke="#000" stroke-opacity="0.6" stroke-width="1.2"/>
<circle r="10" fill="#1c1d21" stroke="url(#lip)" stroke-width="1.6"/>
<circle r="3.2" fill="#9aa0a8"/></svg>